<svg width="367" height="37" viewBox="0 0 367 37" fill="none" xmlns="http://www.w3.org/2000/svg">
<path d="M12.7195 36.5682C10.3994 36.5682 8.35748 35.9586 6.59375 34.7393C4.83002 33.5083 3.45099 31.8274 2.45668 29.6967C1.4742 27.5661 0.982955 25.1513 0.982955 22.4524C0.982955 19.7536 1.48011 17.3388 2.47443 15.2081C3.46875 13.0774 4.84777 11.3965 6.61151 10.1655C8.37524 8.93442 10.4053 8.31889 12.7017 8.31889C14.4299 8.31889 16.0043 8.674 17.4247 9.38423C18.857 10.0945 20.0407 11.0829 20.9759 12.3494C21.9228 13.616 22.5265 15.0838 22.7869 16.7528H20.5852C20.2301 14.9062 19.3423 13.3793 17.9219 12.1719C16.5133 10.9527 14.7791 10.343 12.7195 10.343C10.8729 10.343 9.22751 10.8639 7.78338 11.9055C6.33925 12.9354 5.20289 14.3617 4.37429 16.1847C3.54569 17.9957 3.13139 20.0732 3.13139 22.4169C3.13139 24.7251 3.53385 26.7966 4.33878 28.6314C5.1437 30.4543 6.26823 31.8984 7.71236 32.9638C9.15649 34.0291 10.8255 34.5618 12.7195 34.5618C14.0571 34.5618 15.2763 34.2955 16.3771 33.7628C17.4898 33.2301 18.419 32.4725 19.1648 31.4901C19.9105 30.5076 20.4018 29.3594 20.6385 28.0455H22.8402C22.5798 29.7263 21.9879 31.206 21.0646 32.4844C20.1413 33.7628 18.9635 34.763 17.5312 35.4851C16.099 36.2071 14.495 36.5682 12.7195 36.5682ZM30.2266 36V8.72727H32.3395V12.9886H32.5348C33.1267 11.5919 34.1269 10.4732 35.5355 9.63281C36.9441 8.78054 38.5481 8.3544 40.3473 8.3544C40.5367 8.3544 40.7261 8.3544 40.9155 8.3544C41.1049 8.3544 41.2824 8.36032 41.4482 8.37216V10.5561C41.3061 10.5443 41.1345 10.5265 40.9332 10.5028C40.7438 10.4673 40.5071 10.4496 40.223 10.4496C38.7079 10.4496 37.3584 10.7751 36.1747 11.4261C35.0028 12.0772 34.0795 12.9768 33.4048 14.125C32.7301 15.2614 32.3928 16.5634 32.3928 18.0312V36H30.2266ZM57.0732 36.5682C54.611 36.5682 52.4685 35.9586 50.6456 34.7393C48.8227 33.5201 47.4141 31.8511 46.4197 29.7322C45.4254 27.6134 44.9283 25.1986 44.9283 22.4879C44.9283 19.7654 45.4254 17.3388 46.4197 15.2081C47.4259 13.0774 48.8049 11.3965 50.5568 10.1655C52.3087 8.93442 54.3092 8.31889 56.5582 8.31889C58.0852 8.31889 59.5294 8.62666 60.8906 9.24219C62.2637 9.84588 63.4711 10.7218 64.5128 11.87C65.5663 13.0182 66.389 14.4032 66.9808 16.0249C67.5845 17.6465 67.8864 19.4695 67.8864 21.4936V22.843H46.2955V20.8722H65.7202C65.7202 18.8954 65.3177 17.1139 64.5128 15.5277C63.7079 13.9415 62.6129 12.6809 61.228 11.7457C59.843 10.8106 58.2865 10.343 56.5582 10.343C54.7472 10.343 53.1314 10.852 51.7109 11.87C50.3023 12.8762 49.1837 14.2375 48.3551 15.9538C47.5384 17.6702 47.1122 19.5878 47.0767 21.7067V22.5945C47.0767 24.8672 47.4732 26.9091 48.2663 28.7202C49.0713 30.5194 50.2195 31.9458 51.7109 32.9993C53.2024 34.041 54.9898 34.5618 57.0732 34.5618C58.5646 34.5618 59.8371 34.3132 60.8906 33.8161C61.956 33.3071 62.826 32.6915 63.5007 31.9695C64.1754 31.2474 64.6844 30.549 65.0277 29.8743L66.9986 30.6733C66.5843 31.5848 65.9392 32.4962 65.0632 33.4077C64.1991 34.3073 63.0982 35.0589 61.7607 35.6626C60.4349 36.2663 58.8724 36.5682 57.0732 36.5682ZM82.5703 36.5859C80.996 36.5859 79.5518 36.2723 78.2379 35.6449C76.9358 35.0175 75.8883 34.1001 75.0952 32.8928C74.3139 31.6854 73.9233 30.2176 73.9233 28.4893C73.9233 27.353 74.1245 26.3527 74.527 25.4886C74.9295 24.6245 75.5509 23.8788 76.3913 23.2514C77.2318 22.6241 78.3089 22.1091 79.6229 21.7067C80.9368 21.2924 82.5052 20.9728 84.3281 20.7479C85.7131 20.5821 86.95 20.4223 88.0391 20.2685C89.1281 20.1027 89.9804 19.8482 90.5959 19.505C91.2232 19.1617 91.5369 18.6409 91.5369 17.9425V16.8061C91.5369 14.8175 90.9096 13.2372 89.6548 12.0653C88.4001 10.8935 86.6719 10.3075 84.4702 10.3075C82.517 10.3075 80.8717 10.7396 79.5341 11.6037C78.2083 12.456 77.2791 13.5568 76.7464 14.9062L74.7045 14.1428C75.2254 12.8407 75.977 11.7576 76.9595 10.8935C77.9538 10.0294 79.0902 9.38423 80.3686 8.9581C81.6589 8.53196 83.0083 8.31889 84.4169 8.31889C85.6361 8.31889 86.7962 8.49053 87.897 8.83381C89.0097 9.17708 89.9981 9.69792 90.8622 10.3963C91.7382 11.0947 92.4306 11.9884 92.9396 13.0774C93.4486 14.1546 93.7031 15.4448 93.7031 16.9482V36H91.5369V31.0817H91.3771C90.9036 32.0997 90.2526 33.0289 89.424 33.8693C88.6072 34.6979 87.6188 35.3608 86.4588 35.858C85.3106 36.3433 84.0144 36.5859 82.5703 36.5859ZM82.7834 34.5795C84.4879 34.5795 85.9972 34.1652 87.3111 33.3366C88.6368 32.4962 89.6726 31.348 90.4183 29.892C91.1641 28.4361 91.5369 26.7848 91.5369 24.9382V20.9254C91.2647 21.1622 90.8681 21.3752 90.3473 21.5646C89.8383 21.7422 89.2583 21.902 88.6072 22.044C87.968 22.1742 87.2933 22.2926 86.5831 22.3991C85.8847 22.4938 85.2041 22.5826 84.5412 22.6655C82.5526 22.9022 80.9309 23.2692 79.6761 23.7663C78.4332 24.2517 77.5218 24.8909 76.9418 25.6839C76.3736 26.477 76.0895 27.4358 76.0895 28.5604C76.0895 30.4188 76.7287 31.8866 78.0071 32.9638C79.2855 34.041 80.8776 34.5795 82.7834 34.5795ZM112.426 8.72727V10.6626H100.512V8.72727H112.426ZM104.543 2.19318H106.691V29.5547C106.691 30.6674 106.904 31.5788 107.331 32.2891C107.769 32.9875 108.337 33.5083 109.035 33.8516C109.745 34.183 110.503 34.3487 111.308 34.3487C111.699 34.3487 112.036 34.3191 112.32 34.2599C112.616 34.2008 112.894 34.1238 113.154 34.0291L113.687 36C113.356 36.1184 112.989 36.219 112.586 36.3018C112.184 36.3965 111.71 36.4439 111.166 36.4439C110.029 36.4439 108.952 36.1894 107.934 35.6804C106.928 35.1714 106.111 34.4316 105.484 33.4609C104.857 32.4903 104.543 31.3184 104.543 29.9453V2.19318ZM130.804 36.5682C128.342 36.5682 126.199 35.9586 124.376 34.7393C122.553 33.5201 121.145 31.8511 120.15 29.7322C119.156 27.6134 118.659 25.1986 118.659 22.4879C118.659 19.7654 119.156 17.3388 120.15 15.2081C121.156 13.0774 122.535 11.3965 124.287 10.1655C126.039 8.93442 128.04 8.31889 130.289 8.31889C131.816 8.31889 133.26 8.62666 134.621 9.24219C135.994 9.84588 137.202 10.7218 138.243 11.87C139.297 13.0182 140.119 14.4032 140.711 16.0249C141.315 17.6465 141.617 19.4695 141.617 21.4936V22.843H120.026V20.8722H139.451C139.451 18.8954 139.048 17.1139 138.243 15.5277C137.438 13.9415 136.343 12.6809 134.958 11.7457C133.574 10.8106 132.017 10.343 130.289 10.343C128.478 10.343 126.862 10.852 125.441 11.87C124.033 12.8762 122.914 14.2375 122.086 15.9538C121.269 17.6702 120.843 19.5878 120.807 21.7067V22.5945C120.807 24.8672 121.204 26.9091 121.997 28.7202C122.802 30.5194 123.95 31.9458 125.441 32.9993C126.933 34.041 128.72 34.5618 130.804 34.5618C132.295 34.5618 133.568 34.3132 134.621 33.8161C135.686 33.3071 136.556 32.6915 137.231 31.9695C137.906 31.2474 138.415 30.549 138.758 29.8743L140.729 30.6733C140.315 31.5848 139.67 32.4962 138.794 33.4077C137.93 34.3073 136.829 35.0589 135.491 35.6626C134.165 36.2663 132.603 36.5682 130.804 36.5682Z" fill="white"/>
<path d="M149.074 36V8.72727H151.187V12.8466H151.4C151.921 11.4735 152.821 10.3845 154.099 9.57954C155.377 8.77462 156.916 8.37216 158.716 8.37216C160.692 8.37216 162.284 8.84564 163.492 9.79261C164.711 10.7396 165.587 12.0239 166.12 13.6456H166.315C166.848 12.0476 167.801 10.7692 169.174 9.81037C170.559 8.85156 172.263 8.37216 174.287 8.37216C176.927 8.37216 178.939 9.20668 180.324 10.8757C181.721 12.5329 182.419 14.8056 182.419 17.6939V36H180.253V17.6939C180.253 15.4212 179.709 13.6338 178.62 12.3317C177.531 11.0296 175.933 10.3786 173.826 10.3786C171.577 10.3786 169.848 11.0829 168.641 12.4915C167.434 13.9001 166.83 15.6934 166.83 17.8714V36H164.664V17.5518C164.664 15.433 164.131 13.7107 163.066 12.3849C162 11.0473 160.402 10.3786 158.272 10.3786C156.828 10.3786 155.579 10.71 154.525 11.3729C153.484 12.0357 152.673 12.9472 152.093 14.1072C151.525 15.2673 151.24 16.599 151.24 18.1023V36H149.074ZM202.044 36.5682C199.582 36.5682 197.439 35.9586 195.616 34.7393C193.793 33.5201 192.385 31.8511 191.39 29.7322C190.396 27.6134 189.899 25.1986 189.899 22.4879C189.899 19.7654 190.396 17.3388 191.39 15.2081C192.397 13.0774 193.776 11.3965 195.528 10.1655C197.279 8.93442 199.28 8.31889 201.529 8.31889C203.056 8.31889 204.5 8.62666 205.861 9.24219C207.234 9.84588 208.442 10.7218 209.483 11.87C210.537 13.0182 211.36 14.4032 211.952 16.0249C212.555 17.6465 212.857 19.4695 212.857 21.4936V22.843H191.266V20.8722H210.691C210.691 18.8954 210.288 17.1139 209.483 15.5277C208.679 13.9415 207.584 12.6809 206.199 11.7457C204.814 10.8106 203.257 10.343 201.529 10.343C199.718 10.343 198.102 10.852 196.682 11.87C195.273 12.8762 194.154 14.2375 193.326 15.9538C192.509 17.6702 192.083 19.5878 192.047 21.7067V22.5945C192.047 24.8672 192.444 26.9091 193.237 28.7202C194.042 30.5194 195.19 31.9458 196.682 32.9993C198.173 34.041 199.961 34.5618 202.044 34.5618C203.535 34.5618 204.808 34.3132 205.861 33.8161C206.927 33.3071 207.797 32.6915 208.471 31.9695C209.146 31.2474 209.655 30.549 209.998 29.8743L211.969 30.6733C211.555 31.5848 210.91 32.4962 210.034 33.4077C209.17 34.3073 208.069 35.0589 206.731 35.6626C205.406 36.2663 203.843 36.5682 202.044 36.5682ZM220.314 36V8.72727H222.427V12.8466H222.64C223.161 11.4735 224.061 10.3845 225.339 9.57954C226.618 8.77462 228.157 8.37216 229.956 8.37216C231.933 8.37216 233.525 8.84564 234.732 9.79261C235.951 10.7396 236.827 12.0239 237.36 13.6456H237.555C238.088 12.0476 239.041 10.7692 240.414 9.81037C241.799 8.85156 243.503 8.37216 245.528 8.37216C248.167 8.37216 250.18 9.20668 251.564 10.8757C252.961 12.5329 253.66 14.8056 253.66 17.6939V36H251.493V17.6939C251.493 15.4212 250.949 13.6338 249.86 12.3317C248.771 11.0296 247.173 10.3786 245.066 10.3786C242.817 10.3786 241.089 11.0829 239.881 12.4915C238.674 13.9001 238.07 15.6934 238.07 17.8714V36H235.904V17.5518C235.904 15.433 235.371 13.7107 234.306 12.3849C233.241 11.0473 231.643 10.3786 229.512 10.3786C228.068 10.3786 226.819 10.71 225.765 11.3729C224.724 12.0357 223.913 12.9472 223.333 14.1072C222.765 15.2673 222.481 16.599 222.481 18.1023V36H220.314ZM272.787 36.5682C270.538 36.5682 268.537 35.9645 266.786 34.7571C265.034 33.5379 263.655 31.8629 262.648 29.7322C261.642 27.6016 261.139 25.175 261.139 22.4524C261.139 19.718 261.642 17.2914 262.648 15.1726C263.655 13.0419 265.034 11.367 266.786 10.1477C268.537 8.9285 270.538 8.31889 272.787 8.31889C275.036 8.31889 277.036 8.9285 278.788 10.1477C280.54 11.367 281.919 13.0419 282.925 15.1726C283.932 17.3033 284.435 19.7299 284.435 22.4524C284.435 25.175 283.932 27.6016 282.925 29.7322C281.919 31.8629 280.54 33.5379 278.788 34.7571C277.036 35.9645 275.036 36.5682 272.787 36.5682ZM272.787 34.5618C274.693 34.5618 276.356 34.0232 277.776 32.946C279.209 31.8688 280.315 30.4129 281.097 28.5781C281.89 26.7434 282.286 24.7015 282.286 22.4524C282.286 20.2034 281.89 18.1674 281.097 16.3445C280.304 14.5097 279.197 13.0537 277.776 11.9766C276.356 10.8875 274.693 10.343 272.787 10.343C270.881 10.343 269.218 10.8875 267.798 11.9766C266.377 13.0537 265.27 14.5097 264.477 16.3445C263.684 18.1674 263.288 20.2034 263.288 22.4524C263.288 24.7015 263.678 26.7434 264.46 28.5781C265.253 30.4129 266.359 31.8688 267.78 32.946C269.212 34.0232 270.881 34.5618 272.787 34.5618ZM291.896 36V8.72727H294.009V12.9886H294.205C294.797 11.5919 295.797 10.4732 297.205 9.63281C298.614 8.78054 300.218 8.3544 302.017 8.3544C302.207 8.3544 302.396 8.3544 302.585 8.3544C302.775 8.3544 302.952 8.36032 303.118 8.37216V10.5561C302.976 10.5443 302.804 10.5265 302.603 10.5028C302.414 10.4673 302.177 10.4496 301.893 10.4496C300.378 10.4496 299.028 10.7751 297.845 11.4261C296.673 12.0772 295.749 12.9768 295.075 14.125C294.4 15.2614 294.063 16.5634 294.063 18.0312V36H291.896ZM309.044 36V8.72727H311.192V36H309.044ZM310.127 3.89773C309.654 3.89773 309.239 3.73201 308.884 3.40057C308.541 3.06913 308.369 2.66667 308.369 2.19318C308.369 1.7197 308.541 1.31723 308.884 0.985794C309.228 0.654354 309.642 0.488634 310.127 0.488634C310.601 0.488634 311.009 0.654354 311.352 0.985794C311.707 1.31723 311.885 1.7197 311.885 2.19318C311.885 2.66667 311.713 3.06913 311.37 3.40057C311.027 3.73201 310.612 3.89773 310.127 3.89773ZM330.901 36.5682C328.439 36.5682 326.297 35.9586 324.474 34.7393C322.651 33.5201 321.242 31.8511 320.248 29.7322C319.254 27.6134 318.756 25.1986 318.756 22.4879C318.756 19.7654 319.254 17.3388 320.248 15.2081C321.254 13.0774 322.633 11.3965 324.385 10.1655C326.137 8.93442 328.137 8.31889 330.386 8.31889C331.913 8.31889 333.357 8.62666 334.719 9.24219C336.092 9.84588 337.299 10.7218 338.341 11.87C339.394 13.0182 340.217 14.4032 340.809 16.0249C341.413 17.6465 341.714 19.4695 341.714 21.4936V22.843H320.124V20.8722H339.548C339.548 18.8954 339.146 17.1139 338.341 15.5277C337.536 13.9415 336.441 12.6809 335.056 11.7457C333.671 10.8106 332.115 10.343 330.386 10.343C328.575 10.343 326.96 10.852 325.539 11.87C324.13 12.8762 323.012 14.2375 322.183 15.9538C321.366 17.6702 320.94 19.5878 320.905 21.7067V22.5945C320.905 24.8672 321.301 26.9091 322.094 28.7202C322.899 30.5194 324.048 31.9458 325.539 32.9993C327.031 34.041 328.818 34.5618 330.901 34.5618C332.393 34.5618 333.665 34.3132 334.719 33.8161C335.784 33.3071 336.654 32.6915 337.329 31.9695C338.004 31.2474 338.513 30.549 338.856 29.8743L340.827 30.6733C340.412 31.5848 339.767 32.4962 338.891 33.4077C338.027 34.3073 336.926 35.0589 335.589 35.6626C334.263 36.2663 332.701 36.5682 330.901 36.5682ZM366.501 14.6044L364.495 15.1371C364.175 14.1428 363.72 13.2846 363.128 12.5625C362.536 11.8404 361.79 11.2841 360.891 10.8935C360.003 10.491 358.938 10.2898 357.695 10.2898C355.694 10.2898 354.055 10.7869 352.776 11.7812C351.51 12.7756 350.876 14.0717 350.876 15.6697C350.876 16.9718 351.308 18.049 352.173 18.9013C353.037 19.7417 354.357 20.3809 356.132 20.8189L360.322 21.8665C362.477 22.3991 364.098 23.2633 365.188 24.4588C366.277 25.6425 366.821 27.1162 366.821 28.88C366.821 30.3833 366.413 31.715 365.596 32.875C364.779 34.035 363.649 34.9406 362.205 35.5916C360.772 36.2427 359.103 36.5682 357.197 36.5682C354.652 36.5682 352.563 35.9763 350.93 34.7926C349.296 33.5971 348.249 31.8866 347.787 29.6612L349.864 29.1286C350.255 30.9041 351.066 32.2595 352.297 33.1946C353.54 34.1179 355.167 34.5795 357.18 34.5795C359.405 34.5795 361.198 34.0528 362.56 32.9993C363.933 31.9458 364.619 30.5964 364.619 28.951C364.619 27.6963 364.217 26.6368 363.412 25.7727C362.607 24.9086 361.388 24.2753 359.754 23.8729L355.404 22.8075C353.179 22.263 351.51 21.393 350.397 20.1974C349.284 18.9901 348.728 17.5045 348.728 15.7408C348.728 14.273 349.113 12.9827 349.882 11.87C350.652 10.7573 351.711 9.88731 353.06 9.25994C354.41 8.63258 355.955 8.31889 357.695 8.31889C360.003 8.31889 361.885 8.8634 363.341 9.95241C364.797 11.0414 365.85 12.5921 366.501 14.6044Z" fill="#12A7FB"/>
</svg>
