<svg width="309" height="38" viewBox="0 0 309 38" fill="none" xmlns="http://www.w3.org/2000/svg">
<path d="M13.1278 37.5682C10.6657 37.5682 8.5232 36.9586 6.70028 35.7393C4.87737 34.5201 3.46875 32.8511 2.47443 30.7322C1.48011 28.6134 0.982955 26.1986 0.982955 23.4879C0.982955 20.7654 1.48011 18.3388 2.47443 16.2081C3.48059 14.0774 4.85961 12.3965 6.61151 11.1655C8.3634 9.93442 10.3639 9.31889 12.6129 9.31889C14.1399 9.31889 15.584 9.62666 16.9453 10.2422C18.3184 10.8459 19.5258 11.7218 20.5675 12.87C21.621 14.0182 22.4437 15.4032 23.0355 17.0249C23.6392 18.6465 23.9411 20.4695 23.9411 22.4936V23.843H2.35014V21.8722H21.7749C21.7749 19.8954 21.3724 18.1139 20.5675 16.5277C19.7625 14.9415 18.6676 13.6809 17.2827 12.7457C15.8977 11.8106 14.3411 11.343 12.6129 11.343C10.8018 11.343 9.18608 11.852 7.76562 12.87C6.35701 13.8762 5.2384 15.2375 4.4098 16.9538C3.59304 18.6702 3.1669 20.5878 3.13139 22.7067V23.5945C3.13139 25.8672 3.52794 27.9091 4.32102 29.7202C5.12595 31.5194 6.27415 32.9458 7.76562 33.9993C9.2571 35.041 11.0445 35.5618 13.1278 35.5618C14.6193 35.5618 15.8918 35.3132 16.9453 34.8161C18.0107 34.3071 18.8807 33.6915 19.5554 32.9695C20.2301 32.2474 20.7391 31.549 21.0824 30.8743L23.0533 31.6733C22.639 32.5848 21.9938 33.4962 21.1179 34.4077C20.2538 35.3073 19.1529 36.0589 17.8153 36.6626C16.4896 37.2663 14.9271 37.5682 13.1278 37.5682ZM40.7557 37.5682C38.5658 37.5682 36.6541 36.9645 35.0206 35.7571C33.3871 34.5497 32.1205 32.8866 31.2209 30.7678C30.3331 28.6371 29.8892 26.1927 29.8892 23.4347C29.8892 20.7003 30.339 18.2737 31.2386 16.1548C32.1501 14.0241 33.4226 12.3551 35.0561 11.1477C36.6896 9.9285 38.5954 9.31889 40.7734 9.31889C42.3359 9.31889 43.6913 9.62074 44.8395 10.2244C45.9995 10.8163 46.9702 11.6035 47.7514 12.5859C48.5445 13.5684 49.1482 14.6456 49.5625 15.8175H49.7756V0.636363H51.924V37H49.8288V31.0518H49.5625C49.1245 32.2237 48.5149 33.3068 47.7337 34.3011C46.9524 35.2836 45.9818 36.0767 44.8217 36.6804C43.6617 37.2723 42.3063 37.5682 40.7557 37.5682ZM40.951 35.5618C42.7976 35.5618 44.3778 35.035 45.6918 33.9815C47.0175 32.9162 48.0296 31.4721 48.728 29.6491C49.4382 27.8144 49.7933 25.737 49.7933 23.4169C49.7933 21.0968 49.4382 19.0312 48.728 17.2202C48.0296 15.3973 47.0175 13.965 45.6918 12.9233C44.3778 11.8698 42.7976 11.343 40.951 11.343C39.0807 11.343 37.4768 11.8757 36.1392 12.9411C34.8134 13.9946 33.7955 15.4328 33.0852 17.2557C32.3868 19.0786 32.0376 21.1323 32.0376 23.4169C32.0376 25.7015 32.3868 27.7611 33.0852 29.5959C33.7955 31.4306 34.8134 32.8866 36.1392 33.9638C37.4768 35.0291 39.0807 35.5618 40.951 35.5618ZM61.7784 37V9.72727H63.9268V37H61.7784ZM62.8615 4.89773C62.388 4.89773 61.9737 4.73201 61.6186 4.40057C61.2753 4.06913 61.1037 3.66667 61.1037 3.19318C61.1037 2.7197 61.2753 2.31723 61.6186 1.98579C61.9619 1.65435 62.3762 1.48863 62.8615 1.48863C63.335 1.48863 63.7434 1.65435 64.0866 1.98579C64.4418 2.31723 64.6193 2.7197 64.6193 3.19318C64.6193 3.66667 64.4477 4.06913 64.1044 4.40057C63.7611 4.73201 63.3468 4.89773 62.8615 4.89773ZM82.6413 9.72727V11.6626H70.7273V9.72727H82.6413ZM74.7578 3.19318H76.9062V30.5547C76.9062 31.6674 77.1193 32.5788 77.5455 33.2891C77.9834 33.9875 78.5516 34.5083 79.25 34.8516C79.9602 35.183 80.7178 35.3487 81.5227 35.3487C81.9134 35.3487 82.2507 35.3191 82.5348 35.2599C82.8307 35.2008 83.1089 35.1238 83.3693 35.0291L83.902 37C83.5705 37.1184 83.2036 37.219 82.8011 37.3018C82.3987 37.3965 81.9252 37.4439 81.3807 37.4439C80.2443 37.4439 79.1671 37.1894 78.1491 36.6804C77.143 36.1714 76.3262 35.4316 75.6989 34.4609C75.0715 33.4903 74.7578 32.3184 74.7578 30.9453V3.19318Z" fill="white"/>
<path d="M90.6758 37V9.72727H92.7887V13.8466H93.0018C93.5226 12.4735 94.4222 11.3845 95.7006 10.5795C96.979 9.77462 98.5179 9.37216 100.317 9.37216C102.294 9.37216 103.886 9.84564 105.093 10.7926C106.313 11.7396 107.189 13.0239 107.721 14.6456H107.917C108.449 13.0476 109.402 11.7692 110.775 10.8104C112.16 9.85156 113.865 9.37216 115.889 9.37216C118.529 9.37216 120.541 10.2067 121.926 11.8757C123.323 13.5329 124.021 15.8056 124.021 18.6939V37H121.855V18.6939C121.855 16.4212 121.31 14.6338 120.221 13.3317C119.132 12.0296 117.534 11.3786 115.427 11.3786C113.178 11.3786 111.45 12.0829 110.243 13.4915C109.035 14.9001 108.431 16.6934 108.431 18.8714V37H106.265V18.5518C106.265 16.433 105.733 14.7107 104.667 13.3849C103.602 12.0473 102.004 11.3786 99.8732 11.3786C98.4291 11.3786 97.1803 11.71 96.1268 12.3729C95.0851 13.0357 94.2743 13.9472 93.6942 15.1072C93.1261 16.2673 92.842 17.599 92.842 19.1023V37H90.6758ZM143.645 37.5682C141.183 37.5682 139.041 36.9586 137.218 35.7393C135.395 34.5201 133.986 32.8511 132.992 30.7322C131.998 28.6134 131.501 26.1986 131.501 23.4879C131.501 20.7654 131.998 18.3388 132.992 16.2081C133.998 14.0774 135.377 12.3965 137.129 11.1655C138.881 9.93442 140.881 9.31889 143.131 9.31889C144.657 9.31889 146.102 9.62666 147.463 10.2422C148.836 10.8459 150.043 11.7218 151.085 12.87C152.139 14.0182 152.961 15.4032 153.553 17.0249C154.157 18.6465 154.459 20.4695 154.459 22.4936V23.843H132.868V21.8722H152.292C152.292 19.8954 151.89 18.1139 151.085 16.5277C150.28 14.9415 149.185 13.6809 147.8 12.7457C146.415 11.8106 144.859 11.343 143.131 11.343C141.319 11.343 139.704 11.852 138.283 12.87C136.875 13.8762 135.756 15.2375 134.927 16.9538C134.111 18.6702 133.684 20.5878 133.649 22.7067V23.5945C133.649 25.8672 134.046 27.9091 134.839 29.7202C135.644 31.5194 136.792 32.9458 138.283 33.9993C139.775 35.041 141.562 35.5618 143.645 35.5618C145.137 35.5618 146.409 35.3132 147.463 34.8161C148.528 34.3071 149.398 33.6915 150.073 32.9695C150.748 32.2474 151.257 31.549 151.6 30.8743L153.571 31.6733C153.157 32.5848 152.511 33.4962 151.635 34.4077C150.771 35.3073 149.671 36.0589 148.333 36.6626C147.007 37.2663 145.445 37.5682 143.645 37.5682ZM161.916 37V9.72727H164.029V13.8466H164.242C164.763 12.4735 165.662 11.3845 166.941 10.5795C168.219 9.77462 169.758 9.37216 171.557 9.37216C173.534 9.37216 175.126 9.84564 176.334 10.7926C177.553 11.7396 178.429 13.0239 178.961 14.6456H179.157C179.689 13.0476 180.642 11.7692 182.015 10.8104C183.4 9.85156 185.105 9.37216 187.129 9.37216C189.769 9.37216 191.781 10.2067 193.166 11.8757C194.563 13.5329 195.261 15.8056 195.261 18.6939V37H193.095V18.6939C193.095 16.4212 192.55 14.6338 191.461 13.3317C190.372 12.0296 188.774 11.3786 186.667 11.3786C184.418 11.3786 182.69 12.0829 181.483 13.4915C180.275 14.9001 179.672 16.6934 179.672 18.8714V37H177.506V18.5518C177.506 16.433 176.973 14.7107 175.907 13.3849C174.842 12.0473 173.244 11.3786 171.113 11.3786C169.669 11.3786 168.421 11.71 167.367 12.3729C166.325 13.0357 165.515 13.9472 164.934 15.1072C164.366 16.2673 164.082 17.599 164.082 19.1023V37H161.916ZM214.388 37.5682C212.139 37.5682 210.139 36.9645 208.387 35.7571C206.635 34.5379 205.256 32.8629 204.25 30.7322C203.244 28.6016 202.741 26.175 202.741 23.4524C202.741 20.718 203.244 18.2914 204.25 16.1726C205.256 14.0419 206.635 12.367 208.387 11.1477C210.139 9.9285 212.139 9.31889 214.388 9.31889C216.638 9.31889 218.638 9.9285 220.39 11.1477C222.142 12.367 223.521 14.0419 224.527 16.1726C225.533 18.3033 226.036 20.7299 226.036 23.4524C226.036 26.175 225.533 28.6016 224.527 30.7322C223.521 32.8629 222.142 34.5379 220.39 35.7571C218.638 36.9645 216.638 37.5682 214.388 37.5682ZM214.388 35.5618C216.294 35.5618 217.957 35.0232 219.378 33.946C220.81 32.8688 221.917 31.4129 222.698 29.5781C223.491 27.7434 223.888 25.7015 223.888 23.4524C223.888 21.2034 223.491 19.1674 222.698 17.3445C221.905 15.5097 220.798 14.0537 219.378 12.9766C217.957 11.8875 216.294 11.343 214.388 11.343C212.483 11.343 210.82 11.8875 209.399 12.9766C207.979 14.0537 206.872 15.5097 206.079 17.3445C205.286 19.1674 204.889 21.2034 204.889 23.4524C204.889 25.7015 205.28 27.7434 206.061 29.5781C206.854 31.4129 207.961 32.8688 209.381 33.946C210.814 35.0232 212.483 35.5618 214.388 35.5618ZM233.498 37V9.72727H235.611V13.9886H235.806C236.398 12.5919 237.398 11.4732 238.807 10.6328C240.216 9.78054 241.82 9.3544 243.619 9.3544C243.808 9.3544 243.998 9.3544 244.187 9.3544C244.376 9.3544 244.554 9.36032 244.72 9.37216V11.5561C244.578 11.5443 244.406 11.5265 244.205 11.5028C244.015 11.4673 243.779 11.4496 243.494 11.4496C241.979 11.4496 240.63 11.7751 239.446 12.4261C238.274 13.0772 237.351 13.9768 236.676 15.125C236.002 16.2614 235.664 17.5634 235.664 19.0312V37H233.498ZM250.646 37V9.72727H252.794V37H250.646ZM251.729 4.89773C251.255 4.89773 250.841 4.73201 250.486 4.40057C250.143 4.06913 249.971 3.66667 249.971 3.19318C249.971 2.7197 250.143 2.31723 250.486 1.98579C250.829 1.65435 251.243 1.48863 251.729 1.48863C252.202 1.48863 252.611 1.65435 252.954 1.98579C253.309 2.31723 253.487 2.7197 253.487 3.19318C253.487 3.66667 253.315 4.06913 252.972 4.40057C252.628 4.73201 252.214 4.89773 251.729 4.89773ZM272.503 37.5682C270.041 37.5682 267.898 36.9586 266.075 35.7393C264.252 34.5201 262.844 32.8511 261.849 30.7322C260.855 28.6134 260.358 26.1986 260.358 23.4879C260.358 20.7654 260.855 18.3388 261.849 16.2081C262.856 14.0774 264.235 12.3965 265.987 11.1655C267.738 9.93442 269.739 9.31889 271.988 9.31889C273.515 9.31889 274.959 9.62666 276.32 10.2422C277.693 10.8459 278.901 11.7218 279.942 12.87C280.996 14.0182 281.819 15.4032 282.411 17.0249C283.014 18.6465 283.316 20.4695 283.316 22.4936V23.843H261.725V21.8722H281.15C281.15 19.8954 280.747 18.1139 279.942 16.5277C279.138 14.9415 278.043 13.6809 276.658 12.7457C275.273 11.8106 273.716 11.343 271.988 11.343C270.177 11.343 268.561 11.852 267.141 12.87C265.732 13.8762 264.613 15.2375 263.785 16.9538C262.968 18.6702 262.542 20.5878 262.506 22.7067V23.5945C262.506 25.8672 262.903 27.9091 263.696 29.7202C264.501 31.5194 265.649 32.9458 267.141 33.9993C268.632 35.041 270.42 35.5618 272.503 35.5618C273.994 35.5618 275.267 35.3132 276.32 34.8161C277.386 34.3071 278.256 33.6915 278.93 32.9695C279.605 32.2474 280.114 31.549 280.457 30.8743L282.428 31.6733C282.014 32.5848 281.369 33.4962 280.493 34.4077C279.629 35.3073 278.528 36.0589 277.19 36.6626C275.865 37.2663 274.302 37.5682 272.503 37.5682ZM308.103 15.6044L306.097 16.1371C305.777 15.1428 305.321 14.2846 304.729 13.5625C304.138 12.8404 303.392 12.2841 302.492 11.8935C301.604 11.491 300.539 11.2898 299.296 11.2898C297.296 11.2898 295.656 11.7869 294.378 12.7812C293.111 13.7756 292.478 15.0717 292.478 16.6697C292.478 17.9718 292.91 19.049 293.774 19.9013C294.638 20.7417 295.958 21.3809 297.734 21.8189L301.924 22.8665C304.078 23.3991 305.7 24.2633 306.789 25.4588C307.878 26.6425 308.423 28.1162 308.423 29.88C308.423 31.3833 308.014 32.715 307.197 33.875C306.381 35.035 305.25 35.9406 303.806 36.5916C302.374 37.2427 300.705 37.5682 298.799 37.5682C296.254 37.5682 294.165 36.9763 292.531 35.7926C290.898 34.5971 289.85 32.8866 289.388 30.6612L291.466 30.1286C291.857 31.9041 292.667 33.2595 293.898 34.1946C295.141 35.1179 296.769 35.5795 298.781 35.5795C301.007 35.5795 302.8 35.0528 304.161 33.9993C305.534 32.9458 306.221 31.5964 306.221 29.951C306.221 28.6963 305.818 27.6368 305.013 26.7727C304.209 25.9086 302.989 25.2753 301.356 24.8729L297.006 23.8075C294.78 23.263 293.111 22.393 291.999 21.1974C290.886 19.9901 290.33 18.5045 290.33 16.7408C290.33 15.273 290.714 13.9827 291.484 12.87C292.253 11.7573 293.313 10.8873 294.662 10.2599C296.011 9.63258 297.556 9.31889 299.296 9.31889C301.604 9.31889 303.487 9.8634 304.942 10.9524C306.398 12.0414 307.452 13.5921 308.103 15.6044Z" fill="#12A7FB"/>
</svg>
