<svg width="31" height="25" viewBox="0 0 31 25" fill="none" xmlns="http://www.w3.org/2000/svg">
<path d="M2.90625 3.125C1.30176 3.125 0 4.1748 0 5.46875C0 6.20605 0.429883 6.89941 1.1625 7.34375L14.3375 15.3125C15.0277 15.7275 15.9723 15.7275 16.6625 15.3125L29.8375 7.34375C30.5701 6.89941 31 6.20605 31 5.46875C31 4.1748 29.6982 3.125 28.0938 3.125H2.90625ZM0 8.59375V18.75C0 20.4736 1.7377 21.875 3.875 21.875H27.125C29.2623 21.875 31 20.4736 31 18.75V8.59375L17.825 16.5625C16.4445 17.3975 14.5555 17.3975 13.175 16.5625L0 8.59375Z" fill="#12A7FB"/>
</svg>
