<svg width="39" height="39" viewBox="0 0 39 39" fill="none" xmlns="http://www.w3.org/2000/svg">
<path d="M9.09492 3.35922C10.8697 3.06215 12.6598 3.21449 14.3203 3.76293L18.1137 9.66625L12.3703 15.4096C12.2561 15.5239 12.1875 15.6838 12.1951 15.8514C12.2027 16.019 12.2713 16.1713 12.3932 16.2856L20.9244 24.2075C21.1453 24.4131 21.4881 24.4284 21.7242 24.2303C21.9604 24.0323 22.0137 23.6971 21.8537 23.4381L17.2529 15.9657L24.1617 10.2071C24.3598 10.0471 24.4283 9.77289 24.3445 9.53676L22.6078 4.70746C24.7787 3.43539 27.3609 2.94028 29.8975 3.36684C35.1533 4.2352 39 8.77504 39 14.0995V14.5413C39 17.7024 37.6898 20.7264 35.3742 22.8821L21.61 35.7323C21.0387 36.2655 20.2846 36.5625 19.5 36.5625C18.7154 36.5625 17.9613 36.2655 17.39 35.7323L3.62578 22.8821C1.31016 20.7264 0 17.7024 0 14.5413V14.0995C0 8.77504 3.84668 4.2352 9.09492 3.35922Z" fill="#12A7FB"/>
</svg>
