<svg width="39" height="39" viewBox="0 0 39 39" fill="none" xmlns="http://www.w3.org/2000/svg">
<path d="M18.5859 6.39844L19.4314 7.3125L20.3455 6.39996C22.8973 3.91295 26.4316 2.78104 29.9051 3.35918C35.1533 4.23363 39 8.775 39 14.0994V14.5412C39 17.7023 37.6898 20.7264 35.3742 22.882L21.61 35.7322C21.0387 36.2654 20.2846 36.5625 19.5 36.5625C18.7154 36.5625 17.9613 36.2654 17.39 35.7322L3.62502 22.882C1.31244 20.7264 0 17.7023 0 14.5412V14.0994C0 8.775 3.8482 4.23363 9.09492 3.35918C12.4998 2.78104 16.1027 3.91295 18.5859 6.39844C18.5174 6.39844 18.5859 6.3992 18.5859 6.39844ZM19.4314 12.4846L16.0037 8.91973C14.3508 7.33383 12.0047 6.58125 9.69668 6.96516C6.21182 7.54635 3.65625 10.565 3.65625 14.0994V14.5412C3.65625 16.6893 4.54822 18.7459 6.11965 20.2084L19.5 32.7006L32.8834 20.2084C34.4525 18.7459 35.3438 16.6893 35.3438 14.5412V14.0994C35.3438 10.565 32.7844 7.54635 29.3033 6.96516C26.9953 6.58125 24.6492 7.33383 22.9963 8.91973L19.4314 12.4846Z" fill="#12A7FB"/>
</svg>
