<svg width="287" height="47" viewBox="0 0 287 47" fill="none" xmlns="http://www.w3.org/2000/svg">
<path d="M0.492188 36V8.72727H2.60511V12.8466H2.81818C3.33902 11.4735 4.23864 10.3845 5.51705 9.57954C6.79545 8.77462 8.33428 8.37216 10.1335 8.37216C12.1103 8.37216 13.7024 8.84564 14.9098 9.79261C16.129 10.7396 17.005 12.0239 17.5376 13.6456H17.733C18.2656 12.0476 19.2185 10.7692 20.5916 9.81037C21.9766 8.85156 23.6811 8.37216 25.7053 8.37216C28.3449 8.37216 30.3572 9.20668 31.7422 10.8757C33.139 12.5329 33.8374 14.8056 33.8374 17.6939V36H31.6712V17.6939C31.6712 15.4212 31.1267 13.6338 30.0376 12.3317C28.9486 11.0296 27.3506 10.3786 25.2436 10.3786C22.9946 10.3786 21.2663 11.0829 20.0589 12.4915C18.8516 13.9001 18.2479 15.6934 18.2479 17.8714V36H16.0817V17.5518C16.0817 15.433 15.549 13.7107 14.4837 12.3849C13.4183 11.0473 11.8203 10.3786 9.68963 10.3786C8.2455 10.3786 6.99669 10.71 5.94318 11.3729C4.90152 12.0357 4.09067 12.9472 3.51065 14.1072C2.94247 15.2673 2.65838 16.599 2.65838 18.1023V36H0.492188ZM43.5897 46.2273C43.0452 46.2273 42.5066 46.1681 41.9739 46.0497C41.4412 45.9313 40.9618 45.7775 40.5357 45.5881L41.1749 43.6882C42.2876 44.1143 43.2937 44.2682 44.1934 44.1499C45.1048 44.0315 45.9097 43.6172 46.6081 42.907C47.3065 42.1967 47.8984 41.1551 48.3837 39.782L49.6266 36.3729L39.6301 8.72727H41.9561L50.6209 33.2124H50.7985L59.4632 8.72727H61.7892L50.2836 40.6342C49.8456 41.8653 49.2952 42.8951 48.6323 43.7237C47.9694 44.5523 47.2118 45.1738 46.3596 45.5881C45.5191 46.0142 44.5958 46.2273 43.5897 46.2273Z" fill="white"/>
<path d="M68.5586 36V8.72727H70.6715V12.8466H70.8846C71.4054 11.4735 72.305 10.3845 73.5835 9.57954C74.8619 8.77462 76.4007 8.37216 78.1999 8.37216C80.1767 8.37216 81.7688 8.84564 82.9762 9.79261C84.1954 10.7396 85.0714 12.0239 85.604 13.6456H85.7994C86.332 12.0476 87.2849 10.7692 88.658 9.81037C90.043 8.85156 91.7475 8.37216 93.7717 8.37216C96.4113 8.37216 98.4237 9.20668 99.8086 10.8757C101.205 12.5329 101.904 14.8056 101.904 17.6939V36H99.7376V17.6939C99.7376 15.4212 99.1931 13.6338 98.104 12.3317C97.015 11.0296 95.417 10.3786 93.31 10.3786C91.061 10.3786 89.3327 11.0829 88.1254 12.4915C86.918 13.9001 86.3143 15.6934 86.3143 17.8714V36H84.1481V17.5518C84.1481 15.433 83.6154 13.7107 82.5501 12.3849C81.4847 11.0473 79.8867 10.3786 77.756 10.3786C76.3119 10.3786 75.0631 10.71 74.0096 11.3729C72.9679 12.0357 72.1571 12.9472 71.5771 14.1072C71.0089 15.2673 70.7248 16.599 70.7248 18.1023V36H68.5586ZM121.528 36.5682C119.066 36.5682 116.924 35.9586 115.101 34.7393C113.278 33.5201 111.869 31.8511 110.875 29.7322C109.881 27.6134 109.383 25.1986 109.383 22.4879C109.383 19.7654 109.881 17.3388 110.875 15.2081C111.881 13.0774 113.26 11.3965 115.012 10.1655C116.764 8.93442 118.764 8.31889 121.013 8.31889C122.54 8.31889 123.984 8.62666 125.346 9.24219C126.719 9.84588 127.926 10.7218 128.968 11.87C130.021 13.0182 130.844 14.4032 131.436 16.0249C132.04 17.6465 132.341 19.4695 132.341 21.4936V22.843H110.751V20.8722H130.175C130.175 18.8954 129.773 17.1139 128.968 15.5277C128.163 13.9415 127.068 12.6809 125.683 11.7457C124.298 10.8106 122.742 10.343 121.013 10.343C119.202 10.343 117.586 10.852 116.166 11.87C114.757 12.8762 113.639 14.2375 112.81 15.9538C111.993 17.6702 111.567 19.5878 111.532 21.7067V22.5945C111.532 24.8672 111.928 26.9091 112.721 28.7202C113.526 30.5194 114.675 31.9458 116.166 32.9993C117.657 34.041 119.445 34.5618 121.528 34.5618C123.02 34.5618 124.292 34.3132 125.346 33.8161C126.411 33.3071 127.281 32.6915 127.956 31.9695C128.631 31.2474 129.14 30.549 129.483 29.8743L131.454 30.6733C131.039 31.5848 130.394 32.4962 129.518 33.4077C128.654 34.3073 127.553 35.0589 126.216 35.6626C124.89 36.2663 123.327 36.5682 121.528 36.5682ZM139.799 36V8.72727H141.912V12.8466H142.125C142.646 11.4735 143.545 10.3845 144.824 9.57954C146.102 8.77462 147.641 8.37216 149.44 8.37216C151.417 8.37216 153.009 8.84564 154.216 9.79261C155.436 10.7396 156.312 12.0239 156.844 13.6456H157.04C157.572 12.0476 158.525 10.7692 159.898 9.81037C161.283 8.85156 162.988 8.37216 165.012 8.37216C167.652 8.37216 169.664 9.20668 171.049 10.8757C172.446 12.5329 173.144 14.8056 173.144 17.6939V36H170.978V17.6939C170.978 15.4212 170.433 13.6338 169.344 12.3317C168.255 11.0296 166.657 10.3786 164.55 10.3786C162.301 10.3786 160.573 11.0829 159.366 12.4915C158.158 13.9001 157.555 15.6934 157.555 17.8714V36H155.388V17.5518C155.388 15.433 154.856 13.7107 153.79 12.3849C152.725 11.0473 151.127 10.3786 148.996 10.3786C147.552 10.3786 146.303 10.71 145.25 11.3729C144.208 12.0357 143.397 12.9472 142.817 14.1072C142.249 15.2673 141.965 16.599 141.965 18.1023V36H139.799ZM192.271 36.5682C190.022 36.5682 188.022 35.9645 186.27 34.7571C184.518 33.5379 183.139 31.8629 182.133 29.7322C181.127 27.6016 180.624 25.175 180.624 22.4524C180.624 19.718 181.127 17.2914 182.133 15.1726C183.139 13.0419 184.518 11.367 186.27 10.1477C188.022 8.9285 190.022 8.31889 192.271 8.31889C194.52 8.31889 196.521 8.9285 198.273 10.1477C200.025 11.367 201.404 13.0419 202.41 15.1726C203.416 17.3033 203.919 19.7299 203.919 22.4524C203.919 25.175 203.416 27.6016 202.41 29.7322C201.404 31.8629 200.025 33.5379 198.273 34.7571C196.521 35.9645 194.52 36.5682 192.271 36.5682ZM192.271 34.5618C194.177 34.5618 195.84 34.0232 197.261 32.946C198.693 31.8688 199.8 30.4129 200.581 28.5781C201.374 26.7434 201.771 24.7015 201.771 22.4524C201.771 20.2034 201.374 18.1674 200.581 16.3445C199.788 14.5097 198.681 13.0537 197.261 11.9766C195.84 10.8875 194.177 10.343 192.271 10.343C190.366 10.343 188.702 10.8875 187.282 11.9766C185.862 13.0537 184.755 14.5097 183.962 16.3445C183.169 18.1674 182.772 20.2034 182.772 22.4524C182.772 24.7015 183.163 26.7434 183.944 28.5781C184.737 30.4129 185.844 31.8688 187.264 32.946C188.696 34.0232 190.366 34.5618 192.271 34.5618ZM211.381 36V8.72727H213.494V12.9886H213.689C214.281 11.5919 215.281 10.4732 216.69 9.63281C218.098 8.78054 219.702 8.3544 221.502 8.3544C221.691 8.3544 221.88 8.3544 222.07 8.3544C222.259 8.3544 222.437 8.36032 222.602 8.37216V10.5561C222.46 10.5443 222.289 10.5265 222.088 10.5028C221.898 10.4673 221.661 10.4496 221.377 10.4496C219.862 10.4496 218.513 10.7751 217.329 11.4261C216.157 12.0772 215.234 12.9768 214.559 14.125C213.884 15.2614 213.547 16.5634 213.547 18.0312V36H211.381ZM228.528 36V8.72727H230.677V36H228.528ZM229.612 3.89773C229.138 3.89773 228.724 3.73201 228.369 3.40057C228.025 3.06913 227.854 2.66667 227.854 2.19318C227.854 1.7197 228.025 1.31723 228.369 0.985794C228.712 0.654354 229.126 0.488634 229.612 0.488634C230.085 0.488634 230.493 0.654354 230.837 0.985794C231.192 1.31723 231.369 1.7197 231.369 2.19318C231.369 2.66667 231.198 3.06913 230.854 3.40057C230.511 3.73201 230.097 3.89773 229.612 3.89773ZM250.386 36.5682C247.924 36.5682 245.781 35.9586 243.958 34.7393C242.135 33.5201 240.727 31.8511 239.732 29.7322C238.738 27.6134 238.241 25.1986 238.241 22.4879C238.241 19.7654 238.738 17.3388 239.732 15.2081C240.738 13.0774 242.117 11.3965 243.869 10.1655C245.621 8.93442 247.622 8.31889 249.871 8.31889C251.398 8.31889 252.842 8.62666 254.203 9.24219C255.576 9.84588 256.784 10.7218 257.825 11.87C258.879 13.0182 259.701 14.4032 260.293 16.0249C260.897 17.6465 261.199 19.4695 261.199 21.4936V22.843H239.608V20.8722H259.033C259.033 18.8954 258.63 17.1139 257.825 15.5277C257.02 13.9415 255.925 12.6809 254.54 11.7457C253.156 10.8106 251.599 10.343 249.871 10.343C248.06 10.343 246.444 10.852 245.023 11.87C243.615 12.8762 242.496 14.2375 241.668 15.9538C240.851 17.6702 240.425 19.5878 240.389 21.7067V22.5945C240.389 24.8672 240.786 26.9091 241.579 28.7202C242.384 30.5194 243.532 31.9458 245.023 32.9993C246.515 34.041 248.302 34.5618 250.386 34.5618C251.877 34.5618 253.15 34.3132 254.203 33.8161C255.268 33.3071 256.138 32.6915 256.813 31.9695C257.488 31.2474 257.997 30.549 258.34 29.8743L260.311 30.6733C259.897 31.5848 259.252 32.4962 258.376 33.4077C257.512 34.3073 256.411 35.0589 255.073 35.6626C253.747 36.2663 252.185 36.5682 250.386 36.5682ZM285.986 14.6044L283.979 15.1371C283.66 14.1428 283.204 13.2846 282.612 12.5625C282.02 11.8404 281.275 11.2841 280.375 10.8935C279.487 10.491 278.422 10.2898 277.179 10.2898C275.179 10.2898 273.539 10.7869 272.261 11.7812C270.994 12.7756 270.361 14.0717 270.361 15.6697C270.361 16.9718 270.793 18.049 271.657 18.9013C272.521 19.7417 273.841 20.3809 275.616 20.8189L279.807 21.8665C281.961 22.3991 283.583 23.2633 284.672 24.4588C285.761 25.6425 286.305 27.1162 286.305 28.88C286.305 30.3833 285.897 31.715 285.08 32.875C284.263 34.035 283.133 34.9406 281.689 35.5916C280.257 36.2427 278.588 36.5682 276.682 36.5682C274.137 36.5682 272.048 35.9763 270.414 34.7926C268.781 33.5971 267.733 31.8866 267.271 29.6612L269.349 29.1286C269.739 30.9041 270.55 32.2595 271.781 33.1946C273.024 34.1179 274.652 34.5795 276.664 34.5795C278.889 34.5795 280.683 34.0528 282.044 32.9993C283.417 31.9458 284.104 30.5964 284.104 28.951C284.104 27.6963 283.701 26.6368 282.896 25.7727C282.091 24.9086 280.872 24.2753 279.239 23.8729L274.888 22.8075C272.663 22.263 270.994 21.393 269.881 20.1974C268.769 18.9901 268.212 17.5045 268.212 15.7408C268.212 14.273 268.597 12.9827 269.366 11.87C270.136 10.7573 271.195 9.88731 272.545 9.25994C273.894 8.63258 275.439 8.31889 277.179 8.31889C279.487 8.31889 281.369 8.8634 282.825 9.95241C284.281 11.0414 285.335 12.5921 285.986 14.6044Z" fill="#12A7FB"/>
</svg>
