<svg width="20" height="21" viewBox="0 0 20 21" fill="none" xmlns="http://www.w3.org/2000/svg">
<g clip-path="url(#clip0_9_130)">
<path d="M17.707 1.1975L19.2461 2.74649C20.2226 3.72935 20.2226 5.32159 19.2461 6.30445L17.2109 8.35274L17.1719 8.31343L16.5469 7.68439L12.7969 3.9102L12.1328 3.24185L14.168 1.19357C15.1445 0.210705 16.7265 0.210705 17.7031 1.19357L17.707 1.1975ZM9.41405 4.95597C9.04686 4.58641 8.45311 4.58641 8.08983 4.95597L4.10155 8.96998C3.73436 9.33954 3.14061 9.33954 2.77733 8.96998C2.41405 8.60042 2.41014 8.00284 2.77733 7.63722L6.7617 3.6232C7.85936 2.51847 9.64061 2.51847 10.7383 3.6232L11.25 4.13822L11.914 4.80657L15.664 8.58077L16.289 9.2098L16.3281 9.24911L15.664 9.91746L8.96483 16.656C7.08983 18.5431 4.6992 19.8326 2.09764 20.3555L1.12108 20.552C0.812483 20.6149 0.496076 20.5167 0.27342 20.2926C0.0507639 20.0685 -0.0429861 19.75 0.0156077 19.4394L0.21092 18.4566C0.730451 15.8382 2.0117 13.4322 3.8867 11.5451L9.92576 5.47099L9.41405 4.95597Z" fill="white"/>
</g>
<defs>
<clipPath id="clip0_9_130">
<rect width="20" height="20.129" fill="white" transform="translate(0 0.438721)"/>
</clipPath>
</defs>
</svg>
