<svg width="22" height="25" viewBox="0 0 22 25" fill="none" xmlns="http://www.w3.org/2000/svg">
<g clip-path="url(#clip0_2_213)">
<path d="M13.4062 2.73438C13.4062 1.22559 12.3277 0 11 0C9.67227 0 8.59375 1.22559 8.59375 2.73438C8.59375 4.24316 9.67227 5.46875 11 5.46875C12.3277 5.46875 13.4062 4.24316 13.4062 2.73438ZM2.75 23.4375C2.75 24.3018 3.36445 25 4.125 25H17.875C18.6355 25 19.25 24.3018 19.25 23.4375C19.25 22.5732 18.6355 21.875 17.875 21.875H4.125C3.36445 21.875 2.75 22.5732 2.75 23.4375ZM1.46094 8.27148L0.395312 9.07227C0.150391 9.2627 0 9.58008 0 9.91699C0 10.0732 0.0300781 10.2295 0.0945313 10.3711L4.46875 20.3125H17.5312L21.9055 10.3711C21.9656 10.2295 22 10.0732 22 9.91699C22 9.58008 21.8496 9.2627 21.6047 9.07227L20.5391 8.27148C20.1867 8.00781 19.7227 8.05664 19.4219 8.39844C18.8676 9.02832 18.0941 9.46777 17.3594 9.15527C16.5902 8.82812 16.152 8.17383 15.95 7.40723C15.791 6.78711 15.3527 6.25 14.7812 6.25H14.0938C13.5223 6.25 13.0668 6.79688 12.8219 7.38281C12.5727 7.97852 12.057 8.59375 11 8.59375C9.94297 8.59375 9.42734 7.97852 9.17813 7.38281C8.9332 6.79688 8.47773 6.25 7.90625 6.25H7.21875C6.64727 6.25 6.20898 6.78711 6.0457 7.40723C5.84375 8.16895 5.40547 8.82812 4.63633 9.15527C3.90586 9.46777 3.12812 9.02344 2.57383 8.39844C2.27734 8.06152 1.80898 8.00781 1.46094 8.27148Z" fill="#12A7FB"/>
</g>
<defs>
<clipPath id="clip0_2_213">
<rect width="22" height="25" fill="white"/>
</clipPath>
</defs>
</svg>
