<svg width="405" height="324" viewBox="0 0 405 324" fill="none" xmlns="http://www.w3.org/2000/svg">
<path d="M134.726 217.877C137.13 217.814 149.154 216.991 150.926 216.485C149.407 214.84 123.335 215.852 107.895 185.098C105.173 179.655 103.148 173.96 103.845 167.632C105.68 151.495 124.664 148.648 136.751 155.925C159.532 169.594 176.808 213.701 208.702 217.624C232.116 220.472 262.237 206.866 277.172 188.895C276.792 188.831 276.666 188.768 276.539 188.831C276.286 188.895 276.033 188.958 275.843 189.021C254.77 196.678 216.169 195.159 190.603 179.655C166.809 165.227 157.001 142.509 157.823 132.448C158.962 118.969 172.315 117.766 180.541 120.045C189.654 122.512 195.982 131.182 205.158 137.384C215.03 143.965 225.977 146.053 237.621 143.902C247.05 142.193 259.39 136.118 260.719 134.726C260.023 134.662 259.58 134.662 259.137 134.599C255.213 134.22 251.29 134.093 247.43 133.523C177.061 123.082 165.86 29.9953 87.6445 23.9836C59.6109 21.832 24.743 29.1094 1.39219 46.132C0.885938 46.5117 0.442969 46.8914 0 47.2711C0.0632813 47.3977 0.0632813 47.4609 0.126563 47.5875C0.632812 47.5875 1.13906 47.5242 1.64531 47.4609C5.63203 46.8281 9.55547 46.9547 13.4789 47.6508C28.5398 50.3719 43.6641 62.2688 48.8531 96.0609C52.207 117.766 48.4102 128.208 53.9156 150.546C65.9391 199.336 111.502 218.637 134.726 217.877ZM47.6508 41.0695C47.0813 40.4367 47.0812 40.3102 46.8281 39.8039C54.4852 38.1586 62.1422 37.2094 69.9891 36.7664C69.293 46.0688 55.9406 50.2453 47.6508 41.0695ZM172.252 262.87C145.167 263.63 114.033 245.974 94.0992 224.016C91.1883 220.852 83.468 211.233 82.3289 209.208L82.582 208.955C86.7586 211.549 98.8453 220.725 117.26 226.041C132.574 230.47 147.698 230.027 162.57 223.952C176.934 218.067 188.515 223.636 189.844 225.788C178.137 228.192 177.124 228.572 174.656 230.787C171.429 233.571 171.745 238.191 179.086 241.671C195.666 249.518 218.953 239.899 240.595 257.745C242.114 259.01 245.721 262.68 246.987 264.516C246.923 264.642 246.797 264.705 246.734 264.832C243.696 263.883 236.355 260.086 221.295 258.947C205.664 257.681 191.995 262.301 172.252 262.87ZM282.867 103.402C293.245 100.111 309.002 94.9219 324.949 101.313C335.138 105.427 341.529 113.147 345.262 123.209C347.477 129.157 348.49 135.675 348.49 141.37C348.363 141.37 348.237 141.37 348.11 141.434C347.984 141.18 347.857 140.864 347.794 140.611C344.63 126.689 328.873 112.894 305.016 121.69C273.248 133.46 222.497 127.828 193.071 91.3148C192.628 90.7453 191.552 90.2391 192.248 89.2898C192.312 89.1633 193.577 89.6695 194.147 90.1125C205.601 98.5922 218.384 103.971 232.305 106.692C251.606 110.552 266.857 108.527 282.867 103.402ZM347.857 177.757C327.354 177.884 326.468 209.461 282.298 218.51C270.78 220.852 257.808 221.421 253.884 221.168V220.915C255.656 219.966 263.187 219.27 272.679 210.41C277.678 205.791 282.361 200.855 287.107 195.919C299.447 183.136 313.305 169.214 338.934 171.239C353.552 172.378 357.476 176.428 361.779 179.276C361.969 179.402 362.032 179.592 362.222 179.845C361.905 179.845 361.779 179.909 361.652 179.845C357.223 178.137 352.603 177.757 347.857 177.757ZM340.073 162.506C340.01 162.633 340.01 162.759 339.947 162.886C321.659 160.102 309.572 157.887 296.599 165.417C285.841 171.682 276.729 178.39 257.365 180.858C240.216 183.009 228.825 182.377 215.536 175.795C215.346 175.669 215.156 175.542 214.903 175.416C214.903 175.289 214.966 175.226 214.966 175.099C230.723 177.504 238.001 178.327 250.088 171.429C264.199 163.266 275.463 154.596 295.207 151.812C313.938 149.217 327.67 153.394 340.073 162.506ZM169.973 61.5727C169.594 61.193 169.277 60.8133 168.645 60.1172C173.454 60.1172 187.439 59.3578 202.437 65.4328C214.903 70.4953 222.813 78.7219 234.204 86.2523C241.228 90.8719 249.012 92.1375 257.238 91.3781C259.959 91.125 262.617 90.6188 265.338 90.3023C265.591 90.2391 265.908 90.3023 266.288 90.4922C265.908 90.7453 265.528 91.0617 265.148 91.2516C260.023 93.7828 254.58 95.2383 248.948 95.7445C232.432 97.3898 217.118 93.4031 202.5 85.9992C190.287 79.7344 179.466 71.5078 169.973 61.5727ZM405 212.435C402.785 214.397 390.635 219.776 377.979 215.789C370.195 213.321 365.639 206.36 357.982 200.538C351.654 195.729 344.756 195.539 340.2 195.223C340.58 194.716 340.77 194.463 340.959 194.337C350.325 188.515 360.26 186.616 370.891 190.223C378.802 192.881 383.041 198.766 390.129 205.538C396.963 212.119 403.418 211.802 404.747 212.182C404.81 212.119 404.873 212.182 405 212.435ZM270.527 299.13C271.92 299.89 271.54 300.08 271.477 300.396C259.77 299.51 250.024 295.587 241.861 286.348C228.066 270.717 215.473 268.692 211.106 267.553C211.423 267.427 211.613 267.3 211.802 267.3C220.092 267.363 228.319 267.743 236.419 269.768C252.429 273.818 258.567 285.841 262.744 292.106C264.769 295.144 267.363 297.359 270.527 299.13Z" fill="white"/>
</svg>
