<svg width="20" height="24" viewBox="0 0 20 24" fill="none" xmlns="http://www.w3.org/2000/svg">
<g clip-path="url(#clip0_9_116)">
<path d="M6.03571 0.884109L5.71429 1.53064H1.42857C0.638393 1.53064 0 2.17716 0 2.97741C0 3.77766 0.638393 4.42419 1.42857 4.42419H18.5714C19.3616 4.42419 20 3.77766 20 2.97741C20 2.17716 19.3616 1.53064 18.5714 1.53064H14.2857L13.9643 0.884109C13.7232 0.391302 13.2277 0.0838623 12.6875 0.0838623H7.3125C6.77232 0.0838623 6.27679 0.391302 6.03571 0.884109V0.884109ZM18.5714 5.87096H1.42857L2.375 21.1977C2.44643 22.3416 3.38393 23.2323 4.51339 23.2323H15.4866C16.6161 23.2323 17.5536 22.3416 17.625 21.1977L18.5714 5.87096Z" fill="white"/>
</g>
<defs>
<clipPath id="clip0_9_116">
<rect width="20" height="23.1484" fill="white" transform="translate(0 0.0838623)"/>
</clipPath>
</defs>
</svg>
