<svg width="22" height="25" viewBox="0 0 22 25" fill="none" xmlns="http://www.w3.org/2000/svg">
<g clip-path="url(#clip0_2_209)">
<path d="M7.07143 7.03125C7.07143 4.87305 8.82946 3.125 11 3.125C12.5665 3.125 13.917 4.0332 14.5504 5.35645C14.9237 6.1377 15.8616 6.46973 16.6424 6.09863C17.4232 5.72754 17.7621 4.79492 17.3888 4.01855C16.2545 1.64551 13.8237 0 11 0C7.09598 0 3.92857 3.14941 3.92857 7.03125V9.375H3.14286C1.40938 9.375 0 10.7764 0 12.5V21.875C0 23.5986 1.40938 25 3.14286 25H18.8571C20.5906 25 22 23.5986 22 21.875V12.5C22 10.7764 20.5906 9.375 18.8571 9.375H7.07143V7.03125Z" fill="#12A7FB"/>
</g>
<defs>
<clipPath id="clip0_2_209">
<rect width="22" height="25" fill="white"/>
</clipPath>
</defs>
</svg>
