<svg width="22" height="25" viewBox="0 0 22 25" fill="none" xmlns="http://www.w3.org/2000/svg">
<g clip-path="url(#clip0_2_3)">
<path d="M11 12.5C7.52813 12.5 4.71429 9.70215 4.71429 6.25C4.71429 2.79785 7.52813 0 11 0C14.4719 0 17.2857 2.79785 17.2857 6.25C17.2857 9.70215 14.4719 12.5 11 12.5ZM13.2442 14.8438C18.0813 14.8438 22 18.7402 22 23.5498C22 24.3506 21.3469 25 20.5415 25H1.45848C0.653126 25 0 24.3506 0 23.5498C0 18.7402 3.91875 14.8438 8.7558 14.8438H13.2442Z" fill="#12A7FB"/>
</g>
<defs>
<clipPath id="clip0_2_3">
<rect width="22" height="25" fill="white" transform="matrix(-1 0 0 1 22 0)"/>
</clipPath>
</defs>
</svg>
