<svg width="328" height="37" viewBox="0 0 328 37" fill="none" xmlns="http://www.w3.org/2000/svg">
<path d="M22.4318 8.72727L12.5774 36H10.1271L0.272727 8.72727H2.59872L11.2635 33.2124H11.4411L20.1058 8.72727H22.4318ZM29.3077 36V8.72727H31.4561V36H29.3077ZM30.3908 3.89773C29.9173 3.89773 29.503 3.73201 29.1479 3.40057C28.8046 3.06913 28.633 2.66667 28.633 2.19318C28.633 1.7197 28.8046 1.31723 29.1479 0.985794C29.4912 0.654354 29.9055 0.488634 30.3908 0.488634C30.8643 0.488634 31.2727 0.654354 31.6159 0.985794C31.9711 1.31723 32.1486 1.7197 32.1486 2.19318C32.1486 2.66667 31.977 3.06913 31.6337 3.40057C31.2904 3.73201 30.8761 3.89773 30.3908 3.89773ZM51.165 36.5682C48.7028 36.5682 46.5603 35.9586 44.7374 34.7393C42.9145 33.5201 41.5059 31.8511 40.5115 29.7322C39.5172 27.6134 39.0201 25.1986 39.0201 22.4879C39.0201 19.7654 39.5172 17.3388 40.5115 15.2081C41.5177 13.0774 42.8967 11.3965 44.6486 10.1655C46.4005 8.93442 48.401 8.31889 50.65 8.31889C52.177 8.31889 53.6212 8.62666 54.9824 9.24219C56.3555 9.84588 57.5629 10.7218 58.6046 11.87C59.6581 13.0182 60.4808 14.4032 61.0726 16.0249C61.6763 17.6465 61.9782 19.4695 61.9782 21.4936V22.843H40.3873V20.8722H59.812C59.812 18.8954 59.4095 17.1139 58.6046 15.5277C57.7997 13.9415 56.7047 12.6809 55.3198 11.7457C53.9348 10.8106 52.3783 10.343 50.65 10.343C48.839 10.343 47.2232 10.852 45.8027 11.87C44.3941 12.8762 43.2755 14.2375 42.4469 15.9538C41.6301 17.6702 41.204 19.5878 41.1685 21.7067V22.5945C41.1685 24.8672 41.565 26.9091 42.3581 28.7202C43.1631 30.5194 44.3113 31.9458 45.8027 32.9993C47.2942 34.041 49.0816 34.5618 51.165 34.5618C52.6564 34.5618 53.9289 34.3132 54.9824 33.8161C56.0478 33.3071 56.9178 32.6915 57.5925 31.9695C58.2672 31.2474 58.7762 30.549 59.1195 29.8743L61.0904 30.6733C60.6761 31.5848 60.031 32.4962 59.155 33.4077C58.2909 34.3073 57.19 35.0589 55.8525 35.6626C54.5267 36.2663 52.9642 36.5682 51.165 36.5682ZM75.3837 36L67.2161 8.72727H69.4888L76.5201 32.8217H76.7154L83.7644 8.72727H86.0194L93.0506 32.804H93.2282L100.259 8.72727H102.532L94.3645 36H91.9498L84.9895 12.2607H84.7587L77.7985 36H75.3837Z" fill="white"/>
<path d="M109.279 36V8.72727H111.392V12.8466H111.605C112.126 11.4735 113.026 10.3845 114.304 9.57954C115.583 8.77462 117.121 8.37216 118.921 8.37216C120.897 8.37216 122.49 8.84564 123.697 9.79261C124.916 10.7396 125.792 12.0239 126.325 13.6456H126.52C127.053 12.0476 128.006 10.7692 129.379 9.81037C130.764 8.85156 132.468 8.37216 134.492 8.37216C137.132 8.37216 139.144 9.20668 140.529 10.8757C141.926 12.5329 142.624 14.8056 142.624 17.6939V36H140.458V17.6939C140.458 15.4212 139.914 13.6338 138.825 12.3317C137.736 11.0296 136.138 10.3786 134.031 10.3786C131.782 10.3786 130.053 11.0829 128.846 12.4915C127.639 13.9001 127.035 15.6934 127.035 17.8714V36H124.869V17.5518C124.869 15.433 124.336 13.7107 123.271 12.3849C122.205 11.0473 120.607 10.3786 118.477 10.3786C117.033 10.3786 115.784 10.71 114.73 11.3729C113.689 12.0357 112.878 12.9472 112.298 14.1072C111.73 15.2673 111.445 16.599 111.445 18.1023V36H109.279ZM162.249 36.5682C159.787 36.5682 157.644 35.9586 155.821 34.7393C153.998 33.5201 152.59 31.8511 151.596 29.7322C150.601 27.6134 150.104 25.1986 150.104 22.4879C150.104 19.7654 150.601 17.3388 151.596 15.2081C152.602 13.0774 153.981 11.3965 155.733 10.1655C157.484 8.93442 159.485 8.31889 161.734 8.31889C163.261 8.31889 164.705 8.62666 166.066 9.24219C167.44 9.84588 168.647 10.7218 169.689 11.87C170.742 13.0182 171.565 14.4032 172.157 16.0249C172.76 17.6465 173.062 19.4695 173.062 21.4936V22.843H151.471V20.8722H170.896C170.896 18.8954 170.493 17.1139 169.689 15.5277C168.884 13.9415 167.789 12.6809 166.404 11.7457C165.019 10.8106 163.462 10.343 161.734 10.343C159.923 10.343 158.307 10.852 156.887 11.87C155.478 12.8762 154.359 14.2375 153.531 15.9538C152.714 17.6702 152.288 19.5878 152.252 21.7067V22.5945C152.252 24.8672 152.649 26.9091 153.442 28.7202C154.247 30.5194 155.395 31.9458 156.887 32.9993C158.378 34.041 160.166 34.5618 162.249 34.5618C163.74 34.5618 165.013 34.3132 166.066 33.8161C167.132 33.3071 168.002 32.6915 168.676 31.9695C169.351 31.2474 169.86 30.549 170.203 29.8743L172.174 30.6733C171.76 31.5848 171.115 32.4962 170.239 33.4077C169.375 34.3073 168.274 35.0589 166.936 35.6626C165.611 36.2663 164.048 36.5682 162.249 36.5682ZM180.52 36V8.72727H182.632V12.8466H182.846C183.366 11.4735 184.266 10.3845 185.544 9.57954C186.823 8.77462 188.362 8.37216 190.161 8.37216C192.138 8.37216 193.73 8.84564 194.937 9.79261C196.156 10.7396 197.032 12.0239 197.565 13.6456H197.76C198.293 12.0476 199.246 10.7692 200.619 9.81037C202.004 8.85156 203.708 8.37216 205.733 8.37216C208.372 8.37216 210.385 9.20668 211.77 10.8757C213.166 12.5329 213.865 14.8056 213.865 17.6939V36H211.699V17.6939C211.699 15.4212 211.154 13.6338 210.065 12.3317C208.976 11.0296 207.378 10.3786 205.271 10.3786C203.022 10.3786 201.294 11.0829 200.086 12.4915C198.879 13.9001 198.275 15.6934 198.275 17.8714V36H196.109V17.5518C196.109 15.433 195.576 13.7107 194.511 12.3849C193.446 11.0473 191.848 10.3786 189.717 10.3786C188.273 10.3786 187.024 10.71 185.971 11.3729C184.929 12.0357 184.118 12.9472 183.538 14.1072C182.97 15.2673 182.686 16.599 182.686 18.1023V36H180.52ZM232.992 36.5682C230.743 36.5682 228.742 35.9645 226.991 34.7571C225.239 33.5379 223.86 31.8629 222.854 29.7322C221.847 27.6016 221.344 25.175 221.344 22.4524C221.344 19.718 221.847 17.2914 222.854 15.1726C223.86 13.0419 225.239 11.367 226.991 10.1477C228.742 8.9285 230.743 8.31889 232.992 8.31889C235.241 8.31889 237.242 8.9285 238.993 10.1477C240.745 11.367 242.124 13.0419 243.131 15.1726C244.137 17.3033 244.64 19.7299 244.64 22.4524C244.64 25.175 244.137 27.6016 243.131 29.7322C242.124 31.8629 240.745 33.5379 238.993 34.7571C237.242 35.9645 235.241 36.5682 232.992 36.5682ZM232.992 34.5618C234.898 34.5618 236.561 34.0232 237.981 32.946C239.414 31.8688 240.52 30.4129 241.302 28.5781C242.095 26.7434 242.491 24.7015 242.491 22.4524C242.491 20.2034 242.095 18.1674 241.302 16.3445C240.509 14.5097 239.402 13.0537 237.981 11.9766C236.561 10.8875 234.898 10.343 232.992 10.343C231.086 10.343 229.423 10.8875 228.003 11.9766C226.582 13.0537 225.475 14.5097 224.682 16.3445C223.889 18.1674 223.493 20.2034 223.493 22.4524C223.493 24.7015 223.883 26.7434 224.665 28.5781C225.458 30.4129 226.564 31.8688 227.985 32.946C229.417 34.0232 231.086 34.5618 232.992 34.5618ZM252.102 36V8.72727H254.214V12.9886H254.41C255.002 11.5919 256.002 10.4732 257.411 9.63281C258.819 8.78054 260.423 8.3544 262.222 8.3544C262.412 8.3544 262.601 8.3544 262.79 8.3544C262.98 8.3544 263.157 8.36032 263.323 8.37216V10.5561C263.181 10.5443 263.009 10.5265 262.808 10.5028C262.619 10.4673 262.382 10.4496 262.098 10.4496C260.583 10.4496 259.233 10.7751 258.05 11.4261C256.878 12.0772 255.955 12.9768 255.28 14.125C254.605 15.2614 254.268 16.5634 254.268 18.0312V36H252.102ZM269.249 36V8.72727H271.398V36H269.249ZM270.332 3.89773C269.859 3.89773 269.444 3.73201 269.089 3.40057C268.746 3.06913 268.574 2.66667 268.574 2.19318C268.574 1.7197 268.746 1.31723 269.089 0.985794C269.433 0.654354 269.847 0.488634 270.332 0.488634C270.806 0.488634 271.214 0.654354 271.557 0.985794C271.912 1.31723 272.09 1.7197 272.09 2.19318C272.09 2.66667 271.918 3.06913 271.575 3.40057C271.232 3.73201 270.818 3.89773 270.332 3.89773ZM291.106 36.5682C288.644 36.5682 286.502 35.9586 284.679 34.7393C282.856 33.5201 281.447 31.8511 280.453 29.7322C279.459 27.6134 278.961 25.1986 278.961 22.4879C278.961 19.7654 279.459 17.3388 280.453 15.2081C281.459 13.0774 282.838 11.3965 284.59 10.1655C286.342 8.93442 288.342 8.31889 290.591 8.31889C292.118 8.31889 293.563 8.62666 294.924 9.24219C296.297 9.84588 297.504 10.7218 298.546 11.87C299.599 13.0182 300.422 14.4032 301.014 16.0249C301.618 17.6465 301.92 19.4695 301.92 21.4936V22.843H280.329V20.8722H299.753C299.753 18.8954 299.351 17.1139 298.546 15.5277C297.741 13.9415 296.646 12.6809 295.261 11.7457C293.876 10.8106 292.32 10.343 290.591 10.343C288.78 10.343 287.165 10.852 285.744 11.87C284.336 12.8762 283.217 14.2375 282.388 15.9538C281.572 17.6702 281.145 19.5878 281.11 21.7067V22.5945C281.11 24.8672 281.506 26.9091 282.3 28.7202C283.104 30.5194 284.253 31.9458 285.744 32.9993C287.236 34.041 289.023 34.5618 291.106 34.5618C292.598 34.5618 293.87 34.3132 294.924 33.8161C295.989 33.3071 296.859 32.6915 297.534 31.9695C298.209 31.2474 298.718 30.549 299.061 29.8743L301.032 30.6733C300.617 31.5848 299.972 32.4962 299.096 33.4077C298.232 34.3073 297.131 35.0589 295.794 35.6626C294.468 36.2663 292.906 36.5682 291.106 36.5682ZM326.706 14.6044L324.7 15.1371C324.381 14.1428 323.925 13.2846 323.333 12.5625C322.741 11.8404 321.995 11.2841 321.096 10.8935C320.208 10.491 319.143 10.2898 317.9 10.2898C315.899 10.2898 314.26 10.7869 312.981 11.7812C311.715 12.7756 311.081 14.0717 311.081 15.6697C311.081 16.9718 311.514 18.049 312.378 18.9013C313.242 19.7417 314.562 20.3809 316.337 20.8189L320.528 21.8665C322.682 22.3991 324.304 23.2633 325.393 24.4588C326.482 25.6425 327.026 27.1162 327.026 28.88C327.026 30.3833 326.618 31.715 325.801 32.875C324.984 34.035 323.854 34.9406 322.41 35.5916C320.977 36.2427 319.308 36.5682 317.403 36.5682C314.858 36.5682 312.768 35.9763 311.135 34.7926C309.501 33.5971 308.454 31.8866 307.992 29.6612L310.069 29.1286C310.46 30.9041 311.271 32.2595 312.502 33.1946C313.745 34.1179 315.372 34.5795 317.385 34.5795C319.61 34.5795 321.403 34.0528 322.765 32.9993C324.138 31.9458 324.824 30.5964 324.824 28.951C324.824 27.6963 324.422 26.6368 323.617 25.7727C322.812 24.9086 321.593 24.2753 319.959 23.8729L315.609 22.8075C313.384 22.263 311.715 21.393 310.602 20.1974C309.489 18.9901 308.933 17.5045 308.933 15.7408C308.933 14.273 309.318 12.9827 310.087 11.87C310.857 10.7573 311.916 9.88731 313.265 9.25994C314.615 8.63258 316.16 8.31889 317.9 8.31889C320.208 8.31889 322.09 8.8634 323.546 9.95241C325.002 11.0414 326.055 12.5921 326.706 14.6044Z" fill="#12A7FB"/>
</svg>
